<svg width="1200" height="820" viewBox="0 0 1200 820" fill="none" xmlns="http://www.w3.org/2000/svg">
  <rect width="1200" height="820" rx="36" fill="#E7EEF5"/>
  <rect x="26" y="26" width="1148" height="768" rx="30" fill="#F8FBFE" stroke="#D2DCE8" stroke-width="2"/>

  <path d="M820 34C776 120 760 170 758 232C756 312 787 388 856 485C926 585 972 661 990 784" stroke="#BED8EF" stroke-width="54" stroke-linecap="round"/>
  <path d="M819 34C775 119 759 170 757 232C755 311 786 388 855 486C925 586 971 661 989 784" stroke="#8EC5EA" stroke-opacity="0.45" stroke-width="24" stroke-linecap="round"/>

  <g fill="#C8E6C9">
    <rect x="70" y="88" width="168" height="94" rx="20"/>
    <rect x="930" y="120" width="172" height="94" rx="20"/>
    <rect x="158" y="588" width="178" height="102" rx="20"/>
    <rect x="908" y="580" width="182" height="108" rx="20"/>
  </g>

  <g fill="#D9F0DA">
    <rect x="85" y="104" width="138" height="62" rx="14"/>
    <rect x="944" y="136" width="142" height="62" rx="14"/>
    <rect x="176" y="606" width="142" height="68" rx="14"/>
    <rect x="926" y="598" width="146" height="72" rx="14"/>
  </g>

  <g stroke="#EEF2F6" stroke-width="44" stroke-linecap="round">
    <path d="M102 134H711"/>
    <path d="M170 246H1085"/>
    <path d="M82 368H1116"/>
    <path d="M124 488H1068"/>
    <path d="M155 617H930"/>
    <path d="M204 710H1056"/>
    <path d="M176 94V708"/>
    <path d="M332 80V732"/>
    <path d="M496 78V742"/>
    <path d="M664 88V748"/>
    <path d="M930 98V724"/>
    <path d="M1072 120V700"/>
    <path d="M74 688C206 642 364 604 558 600C741 596 935 625 1112 684"/>
    <path d="M84 566C234 528 370 474 520 392C618 338 710 270 814 192C914 118 1007 88 1126 94"/>
  </g>

  <g stroke="#B8C4D0" stroke-width="16" stroke-linecap="round">
    <path d="M102 134H711"/>
    <path d="M170 246H1085"/>
    <path d="M82 368H1116"/>
    <path d="M124 488H1068"/>
    <path d="M155 617H930"/>
    <path d="M204 710H1056"/>
    <path d="M176 94V708"/>
    <path d="M332 80V732"/>
    <path d="M496 78V742"/>
    <path d="M664 88V748"/>
    <path d="M930 98V724"/>
    <path d="M1072 120V700"/>
  </g>

  <g stroke="#D6DEE7" stroke-width="8" stroke-linecap="round" stroke-dasharray="4 18">
    <path d="M102 134H711"/>
    <path d="M170 246H1085"/>
    <path d="M82 368H1116"/>
    <path d="M124 488H1068"/>
    <path d="M155 617H930"/>
    <path d="M204 710H1056"/>
    <path d="M176 94V708"/>
    <path d="M332 80V732"/>
    <path d="M496 78V742"/>
    <path d="M664 88V748"/>
    <path d="M930 98V724"/>
    <path d="M1072 120V700"/>
    <path d="M74 688C206 642 364 604 558 600C741 596 935 625 1112 684"/>
    <path d="M84 566C234 528 370 474 520 392C618 338 710 270 814 192C914 118 1007 88 1126 94"/>
  </g>

  <g fill="#F4F7FA" stroke="#D5DEE7" stroke-width="2">
    <rect x="206" y="152" width="88" height="64" rx="12"/>
    <rect x="360" y="152" width="100" height="64" rx="12"/>
    <rect x="530" y="152" width="96" height="64" rx="12"/>
    <rect x="712" y="156" width="112" height="56" rx="12"/>
    <rect x="954" y="276" width="88" height="64" rx="12"/>
    <rect x="198" y="394" width="102" height="66" rx="12"/>
    <rect x="354" y="394" width="110" height="66" rx="12"/>
    <rect x="538" y="394" width="90" height="66" rx="12"/>
    <rect x="696" y="394" width="118" height="66" rx="12"/>
    <rect x="946" y="518" width="104" height="72" rx="12"/>
    <rect x="202" y="642" width="96" height="52" rx="12"/>
    <rect x="362" y="644" width="106" height="52" rx="12"/>
  </g>

  <g fill="#6B7785" font-family="Arial, Helvetica, sans-serif" font-size="26" font-weight="700">
    <text x="228" y="190">Gulberg</text>
    <text x="974" y="178">DHA</text>
    <text x="212" y="650">Johar Town</text>
    <text x="370" y="430">Model Town</text>
    <text x="726" y="432">Cantt</text>
  </g>

  <g fill="#8B97A6" font-family="Arial, Helvetica, sans-serif" font-size="18" font-weight="600">
    <text x="102" y="122">Canal Bank</text>
    <text x="362" y="356">Ferozepur Rd</text>
    <text x="954" y="476">Ring Road</text>
    <text x="86" y="514">Multan Road</text>
    <text x="104" y="740">Lake City Corridor</text>
  </g>
</svg>
